<?xml version="1.0" encoding="utf-8"?>
<!-- Generator: Adobe Illustrator 19.1.0, SVG Export Plug-In . SVG Version: 6.00 Build 0)  -->
<svg version="1.1" id="Layer_1" xmlns="http://www.w3.org/2000/svg" xmlns:xlink="http://www.w3.org/1999/xlink" x="0px" y="0px"
	 viewBox="0 0 200 200" enable-background="new 0 0 200 200" xml:space="preserve">
<g>
	<path fill="#CE3234" d="M20.2,155.5h51.9l10.2-111H10L20.2,155.5z M54,99.4l6-2.4c2.2-0.9,4.6,0.2,5.5,2.3l2.4,6
		c0.9,2.2-0.2,4.6-2.3,5.5l-6,2.4c-2.2,0.9-4.6-0.2-5.5-2.3l-2.4-6C50.8,102.8,51.8,100.3,54,99.4z M54.2,122l8.1,3.9
		c2.1,1,3,3.6,1.9,5.7l-3.9,8.1c-1,2.1-3.6,3-5.7,1.9l-8.1-3.9c-2.1-1-3-3.6-1.9-5.7l3.9-8.1C49.5,121.8,52.1,121,54.2,122z
		 M27.9,104l8.3-3.4c2.2-0.9,4.6,0.2,5.5,2.3l3.4,8.3c0.9,2.2-0.2,4.6-2.3,5.5l-8.3,3.4c-2.2,0.9-4.6-0.2-5.5-2.3l-3.4-8.3
		C24.7,107.3,25.7,104.8,27.9,104z"/>
	<path fill="#CE3234" d="M105.1,155.5h64.3c8.3,0,15.1-6.8,15.1-15.1H89.9C89.9,148.7,96.7,155.5,105.1,155.5z"/>
	<path fill="#CE3234" d="M181.9,118.3H92.6c-4.5,0-8.1,3.7-8.1,8.1c0,4.5,3.7,8.1,8.1,8.1h89.3c4.5,0,8.1-3.7,8.1-8.1
		S186.3,118.3,181.9,118.3z"/>
	<path fill="#CE3234" d="M137.2,75.6c-38.5,0-47.3,21.4-47.3,37.2h94.6C184.5,97,175.4,75.6,137.2,75.6z M102.7,100.8
		c-1.8,0-3.3-1.5-3.3-3.3s1.5-3.3,3.3-3.3s3.3,1.5,3.3,3.3C106,99.4,104.5,100.8,102.7,100.8z M123.6,102.7c-1.7,0-3-1.4-3-3
		c0-1.7,1.4-3,3-3c1.7,0,3,1.4,3,3C126.6,101.4,125.3,102.7,123.6,102.7z M137.5,85.7c-1.9,0-3.4-1.5-3.4-3.4s1.5-3.4,3.4-3.4
		s3.4,1.5,3.4,3.4S139.4,85.7,137.5,85.7z M152.2,98.5c-1.5,0-2.8-1.2-2.8-2.8c0-1.5,1.2-2.8,2.8-2.8c1.5,0,2.8,1.2,2.8,2.8
		C155,97.2,153.7,98.5,152.2,98.5z M173.9,102.2c-1.5,0-2.8-1.2-2.8-2.8c0-1.5,1.2-2.8,2.8-2.8c1.5,0,2.8,1.2,2.8,2.8
		S175.4,102.2,173.9,102.2z"/>
</g>
<g>
	<path fill="#CE3234" d="M151.6,32.3h-36c-1.1,0-2,0.9-2,2v25.3c0,1.1,0.9,2,2,2h36c1.1,0,2-0.9,2-2V34.3
		C153.6,33.2,152.7,32.3,151.6,32.3z M126.6,48.3h-1.5v2.8h-3.6V40.3h5.1c2.8,0,4.4,1.4,4.4,3.9C131.1,46.8,129.4,48.3,126.6,48.3z
		 M145.4,51.1h-3.1v-5.9l-1.9,4.9H138l-1.9-4.9v5.9h-3.1V40.3h3.8l2.4,5.7l2.4-5.7h3.8V51.1z"/>
	<path fill="#CE3234" d="M126.4,43h-1.3v2.6h1.3c0.8,0,1.2-0.5,1.2-1.3C127.7,43.5,127.2,43,126.4,43z"/>
</g>
</svg>
