<?xml version="1.0" encoding="utf-8"?>
<!-- Generator: Adobe Illustrator 19.1.0, SVG Export Plug-In . SVG Version: 6.00 Build 0)  -->
<svg version="1.1" id="Layer_1" xmlns="http://www.w3.org/2000/svg" xmlns:xlink="http://www.w3.org/1999/xlink" x="0px" y="0px"
	 viewBox="0 0 200 200" enable-background="new 0 0 200 200" xml:space="preserve">
<path fill="#CE3234" d="M100,10c-49.6,0-90,40.4-90,90s40.4,90,90,90c49.6,0,90-40.4,90-90S149.7,10,100,10z M100.6,180
	c-44.1,0-80-35.9-80-80s35.9-80,80-80s80,35.9,80,80S144.7,180,100.6,180z"/>
<path fill="#CE3234" d="M100.6,22c-43,0-78,35-78,78c0,43,35,78,78,78c43,0,78-35,78-78C178.6,57,143.6,22,100.6,22z M97.2,79.8v0.5
	c-2,4.7-5.9,8-9.6,9.4l3,55.8c0.1,1.5-1,2.7-2.5,2.7h-0.3h-5.9h-0.1c-1.4,0-2.6-1.2-2.5-2.7l3-55.8c-3.6-1.4-7.6-4.6-9.6-9.4V80
	v-0.1l3.4-23.8c0-0.1,0-0.1,0-0.1l0.1-0.5c0.1-1.2,1-2.1,1.8-2.1c0.3,0,1.1,0.1,1.1,1.1v0.1l-1.5,22c0,1.2,1,2,2.4,2
	c1.4,0,2.5-0.7,2.5-2l0.8-23.4c0-0.8,0.8-1.4,1.7-1.4c0.9,0,1.6,0.5,1.7,1.3v0.1c0.2,6,0.8,23.4,0.8,23.4c0,1.2,1.1,2,2.5,2
	c1.3,0,2.4-0.7,2.4-2l-1.5-22v-0.1c0-0.9,0.8-1.1,1.1-1.1c0.7,0.1,1.6,0.9,1.8,2.1l0.1,0.4c0,0.1,0,0.1,0,0.1l3.4,23.8
	C97.3,79.8,97.2,79.9,97.2,79.8z M127.3,110.9v7.3v33c0,0.4-0.1,0.9-0.3,1.2c-0.3,1-1.2,1.8-2.4,1.8h-0.3H121h-0.3
	c-1.1,0-2-0.7-2.4-1.7c-0.2-0.4-0.3-0.8-0.3-1.3v-35.9c-3.6-2.8-6.2-8.1-6.2-18.7c0-20.6,8.1-50.8,15.5-50.8V110.9z"/>
</svg>
