<?xml version="1.0" encoding="utf-8"?>
<!-- Generator: Adobe Illustrator 19.1.0, SVG Export Plug-In . SVG Version: 6.00 Build 0)  -->
<svg version="1.1" id="Layer_1" xmlns="http://www.w3.org/2000/svg" xmlns:xlink="http://www.w3.org/1999/xlink" x="0px" y="0px"
	 viewBox="0 0 200 200" enable-background="new 0 0 200 200" xml:space="preserve">
<path fill="#CE3234" d="M146,61.5h-17.6V47.1c0-1.9-1.6-3.3-3.3-3.3H33.4c-1.9,0-3.3,1.6-3.3,3.3v94.6c0,8.1,6.6,14.8,14.8,14.8
	h68.8c8.1,0,14.8-6.6,14.8-14.8v-3.1H146c13.2,0,24-10.8,24-24V85.5C170,72.3,159.2,61.5,146,61.5z M157.1,114.6
	c0,6.1-5.1,11.2-11.2,11.2h-17.6V74.4H146c6.1,0,11.2,5.1,11.2,11.2V114.6z"/>
</svg>
